<svg width="255" height="72" viewBox="0 0 255 72" fill="none" xmlns="http://www.w3.org/2000/svg">
<path fill-rule="evenodd" clip-rule="evenodd" d="M112.254 43.1191L107 49.4435C109.043 52.3624 115.66 56.8381 125.681 56.8381C134.243 56.8381 141.249 51.4275 141.249 43.411C141.249 36.4044 134.348 33.7655 130.644 32.3491C130.439 32.2706 130.243 32.1959 130.06 32.1244C129.42 31.8756 128.737 31.6377 128.046 31.3973L128.046 31.3972C124.894 30.2993 121.595 29.1502 121.595 26.6758C121.595 24.2931 124.027 22.3946 127.238 22.3946C132.297 22.3946 135.606 24.3406 139.011 27.4541L144.265 21.519C140.86 18.1135 135.995 15 128.114 15C119.065 15 112.546 20.9352 112.546 27.4541C112.546 33.973 118.773 37.2164 122.47 38.6434C123.287 38.9586 124.07 39.2485 124.811 39.523L124.812 39.5231C129.105 41.1127 132.006 42.1868 132.006 44.6759C132.006 47.5948 130.06 49.4435 125.681 49.4435C120.33 49.4435 116.207 46.8506 112.254 43.1191ZM147.962 23.2703H159.833L152.535 56.0597H161.39L168.492 23.2703H180.265L181.919 15.681H149.714L147.962 23.2703ZM170.536 56.157H180.46L184.449 49.1515H202.449L203.52 56.157H212.568L205.952 15.681H195.055L170.536 56.157ZM225.12 15.681L216.363 56.157H224.828L228.039 41.6596H234.752L239.422 56.157H249.055L243.412 41.1731C250.872 39.0504 254.698 33.7785 254.99 27.3568C255.256 21.5189 250.125 15.681 243.412 15.681H225.12ZM229.765 34.265L232.197 22.9784H241.052C243.679 22.9784 246.008 25.6055 245.819 28.2325C245.497 32.7082 242.173 34.265 239.203 34.265H229.765ZM188.511 41.7569H201.84L199.116 23.2703L188.511 41.7569Z" fill="white"/>
<path fill-rule="evenodd" clip-rule="evenodd" d="M39.5157 71.9777C59.3899 71.9777 75.5011 55.8665 75.5011 35.9924C75.5011 16.1182 59.3899 0.00701904 39.5157 0.00701904C34.8908 0.00701904 30.4697 0.879498 26.408 2.46884C24.9181 3.0945 25.1753 3.46679 26.8271 3.06938C29.5904 2.27976 32.4997 1.85812 35.5035 1.85812C53.5862 1.85812 68.245 17.1386 68.245 35.988C68.245 54.8374 53.5862 70.1178 35.5035 70.1178C32.5419 70.1178 29.6721 69.7079 26.9435 68.9395C25.1536 68.4864 24.8746 68.8879 26.5072 69.5545C26.6916 69.626 26.8767 69.6961 27.0625 69.7646L27.089 69.7739C27.1255 69.7867 27.1589 69.7991 27.1893 69.8111C31.0344 71.2129 35.1857 71.9777 39.5157 71.9777ZM37.4201 10.9965C34.2407 16.5258 31.2107 21.7951 31.2107 32.0111V43.3924C31.2107 44.318 30.76 45.7641 30.76 45.7641C29.7601 48.6738 29.3313 51.5964 28.9761 57.2085C28.7406 60.9287 28.7578 62.4414 28.8342 63.4964C28.9316 64.5179 29.4799 64.3972 29.7663 64.079L31.1071 62.6234C31.6419 62.0446 31.7945 61.73 32.0269 60.7466C32.1029 60.4126 32.1713 60.1002 32.2364 59.8028C32.5665 58.2955 32.8118 57.1756 33.5224 55.5903C34.331 53.7865 35.1076 60.2356 35.1725 60.8399C35.2374 61.4442 35.7166 61.4562 35.9182 61.2826C36.1198 61.1091 36.8969 60.3971 36.8969 60.3971C37.1861 60.1079 37.2851 59.8082 37.1765 59.232C37.0443 58.5396 36.8922 57.7755 36.7278 56.9503C34.9368 47.9578 31.6992 31.7022 37.1232 21.6855C37.6128 20.8376 38.0584 20.9151 38.3196 21.6419C40.6987 28.5616 40.1658 56.8938 40.136 57.9737C40.1061 59.0535 40.6261 58.6222 40.7418 58.2999C40.7618 58.2441 40.7983 58.1465 40.8451 58.0209C41.069 57.4205 41.531 56.1815 41.5775 55.8296C43.2295 43.3247 43.5839 37.4572 41.8604 24.2779C41.7375 23.3524 42.1757 23.1997 42.5128 23.9517C47.0124 34.3163 45.0172 44.831 43.5156 52.7444C43.4463 53.1095 43.3781 53.4692 43.3115 53.8231C43.1486 54.6902 43.5139 54.6613 43.8897 53.9387C44.2654 53.216 45.0459 51.7418 45.0459 51.7418C45.5084 50.759 45.942 50.8168 46.1443 51.7418L47.8026 58.2067C48.0092 58.9587 48.4284 58.9121 48.5715 58.1601C49.2591 54.5482 49.6035 50.0559 47.8828 44.7229C47.6588 44.0287 47.4701 42.8139 47.4779 41.8884C47.4808 41.5332 47.488 41.0716 47.4963 40.5307C47.5396 37.7241 47.6159 32.7805 47.3155 29.4682C46.9572 25.5176 45.0039 16.5998 40.0722 9.04828C39.4432 8.31218 39.0705 8.27773 38.5311 9.04829C38.1618 9.70669 37.7899 10.3534 37.4201 10.9965Z" fill="white"/>
<path fill-rule="evenodd" clip-rule="evenodd" d="M75.3936 33.1916C76.6895 34.0943 77.4973 35.1584 77.727 36.3725C78.9421 42.7967 63.5078 50.9865 43.2535 54.6648C22.9992 58.3432 5.5948 56.1172 4.37969 49.693C3.69462 46.0711 8.30175 41.8879 16.0812 38.2685C17.0508 39.3676 17.6399 40.8105 17.6421 42.391C17.647 38.9453 20.4412 36.1534 23.8878 36.1524V36.1524C20.4465 36.1515 17.6555 33.3681 17.6422 29.9296H17.6421C17.6288 33.3687 14.8368 36.1524 11.3946 36.1524L11.3946 36.1524C12.7411 36.1524 13.988 36.5784 15.0081 37.3028C5.47739 41.4516 -0.278153 46.3778 0.52194 50.6078C1.86243 57.6949 21.0972 60.1443 43.484 56.0786C65.8707 52.013 82.9321 42.9719 81.5916 35.8848C81.1545 33.574 78.815 31.7562 75.084 30.4966C75.22 31.3846 75.3237 32.2834 75.3936 33.1916ZM17.6422 42.4246L17.6421 42.4089L17.6421 42.4246H17.6422Z" fill="#FDAE2D"/>
</svg>
