<svg width="397" height="318" viewBox="0 0 397 318" fill="none" xmlns="http://www.w3.org/2000/svg">
<path d="M395.5 159C395.5 245.691 307.628 316.5 198.5 316.5C89.3722 316.5 1.5 245.691 1.5 159C1.5 72.3087 89.3722 1.5 198.5 1.5C307.628 1.5 395.5 72.3087 395.5 159Z" fill="black" stroke="white" stroke-width="3"/>
<g filter="url(#filter0_i_30_77)">
<ellipse cx="198.5" cy="159" rx="191.5" ry="153" fill="#FFF33E"/>
</g>
<path d="M212.406 212.981C195.935 228.759 185.482 250.234 182.315 259L175.452 244.84C184.074 237.255 197.624 221.199 194.985 220.566C189.917 219.353 178.091 233.883 172.812 241.3L159.751 256.097L158.558 254.449L183.371 209.947H187.594C193.049 210.958 204.483 210.163 210.294 200.844C234.579 161.905 242.497 149.768 293.178 118.92C298.105 121.28 308.171 127.011 309.015 131.057C310.071 136.114 265.198 170.502 249.888 184.661C234.579 198.821 226.66 206.407 212.406 212.981Z" fill="url(#paint0_linear_30_77)"/>
<path d="M174.5 243.063L168.751 242.207L167.005 257.483L181.787 258.494L174.5 243.063Z" fill="#202314"/>
<path d="M183.5 196.125C189.444 196.048 189.562 193.161 190.234 192.454C188.751 207.132 181.986 218.207 174.924 225.624L174.5 217.678C179.339 211.333 184.578 199.875 183.5 196.125Z" fill="#202314"/>
<path d="M159.086 257.184C150.64 246.565 149 234.442 149 234.442C157.146 231.538 163.127 226.201 168.317 221.51V229.652C165.654 231.679 166.5 230.131 161 234.442C155.5 238.752 159.086 257.184 159.086 257.184Z" fill="#202314"/>
<path d="M174.5 243.063L168.751 242.207L167.005 257.483L181.787 258.494L174.5 243.063Z" stroke="#202314" stroke-width="3" stroke-linejoin="round"/>
<path d="M183.5 196.125C189.444 196.048 189.562 193.161 190.234 192.454C188.751 207.132 181.986 218.207 174.924 225.624L174.5 217.678C179.339 211.333 184.578 199.875 183.5 196.125Z" stroke="#202314" stroke-width="3" stroke-linejoin="round"/>
<path d="M159.086 257.184C150.64 246.565 149 234.442 149 234.442C157.146 231.538 163.127 226.201 168.317 221.51V229.652C165.654 231.679 166.5 230.131 161 234.442C155.5 238.752 159.086 257.184 159.086 257.184Z" stroke="#202314" stroke-width="3" stroke-linejoin="round"/>
<g filter="url(#filter1_i_30_77)">
<path d="M167.323 192.454C163.099 189.926 157.186 182.239 167.323 167.675C171.967 161.001 177.96 153.172 183.688 144.91C187.234 139.795 190.678 134.516 193.638 129.241C198.942 119.792 203 104.644 203 98.896C201.109 105.601 192.5 104.644 186.856 109.519C186.856 109.519 188 115.66 190 121.886C192 128.113 192.692 126.713 192.5 127.634C191.6 131.944 185.876 139.129 183.688 141.045C181.5 142.96 180.203 142.182 182.315 139.654C182.315 139.654 186.856 134.854 186.856 131.465C186.856 128.076 180.5 111.828 180.5 111.828C179.796 108.288 179.253 104.259 182.632 101.427C186.011 98.5955 201.109 87.7734 201.109 87.7734C201.109 87.7734 204.805 85.5483 204.805 80.6935C204.805 75.8388 209.028 72.9394 211.14 72.0966C217.475 69.7366 231.623 65.3201 237.536 66.5338C244.927 68.0509 239.703 93.0834 236.536 107.243C238.857 114.256 244.295 126.648 248.5 130.676C253.5 135.465 253.765 131.182 257 138C257.507 139.068 258 142 258 144C256 148 250.148 144.701 247.5 141.213C243.5 135.944 236 122.012 232.5 121.533C227.226 139.322 217.032 164.031 190.023 192.454C189.352 193.16 185.937 196.308 179.993 196.384C177.989 196.41 175.699 196.087 173.13 195.205L174.037 212.862L174.692 225.606C174.692 225.606 174.604 228.215 175 239.231C175.397 250.247 168.5 250.247 168.5 240.668V214.325C168.5 203.788 167.323 192.454 167.323 192.454Z" fill="#DB1F00"/>
</g>
<path d="M236.536 107.243C239.703 93.0834 244.927 68.0509 237.536 66.5338C231.623 65.3201 217.475 69.7366 211.14 72.0966C209.028 72.9394 204.805 75.8388 204.805 80.6935C204.805 85.5483 201.109 87.7734 201.109 87.7734C201.109 87.7734 186.011 98.5955 182.632 101.427C179.253 104.259 179.796 108.288 180.5 111.828C180.5 111.828 186.856 128.076 186.856 131.465C186.856 134.854 182.315 139.654 182.315 139.654C180.203 142.182 181.5 142.96 183.688 141.045C185.876 139.129 191.6 131.944 192.5 127.634C192.692 126.713 192 128.113 190 121.886C188 115.66 186.856 109.519 186.856 109.519C192.5 104.644 201.109 105.601 203 98.896C203 104.644 198.942 119.792 193.638 129.241C190.678 134.516 187.234 139.795 183.688 144.91C177.96 153.172 171.967 161.001 167.323 167.675C157.186 182.239 163.099 189.926 167.323 192.454C167.323 192.454 168.5 203.788 168.5 214.325C168.5 224.863 168.5 231.089 168.5 240.668C168.5 250.247 175.397 250.247 175 239.231C174.604 228.215 174.692 225.606 174.692 225.606L174.037 212.862L173.13 195.205C175.699 196.087 177.989 196.41 179.993 196.384C185.937 196.308 189.352 193.16 190.023 192.454C217.032 164.031 227.226 139.322 232.5 121.533M236.536 107.243C236.197 108.758 234.545 114.635 232.5 121.533M236.536 107.243C238.857 114.256 244.295 126.648 248.5 130.676C253.5 135.465 253.765 131.182 257 138C257.507 139.068 258 142 258 144M232.5 121.533C236 122.012 243.5 135.944 247.5 141.213C250.148 144.701 256 148 258 144M258 144L252 139" stroke="#202314" stroke-width="3" stroke-linejoin="round"/>
<path d="M192 185.109L189.5 187.983M170 170.74C168.5 171.219 167 174.476 167 176.009M166 178.403V178.882" stroke="#202314" stroke-width="2" stroke-linecap="round"/>
<path d="M220 102L220.065 103.499L220 102ZM230 96.5L230.671 95.1584C229.93 94.7879 229.029 95.0882 228.658 95.8292L230 96.5ZM210 89.5C209.172 89.5 208.5 90.1716 208.5 91C208.5 91.8284 209.172 92.5 210 92.5V89.5ZM213 92.5C213.828 92.5 214.5 91.8284 214.5 91C214.5 90.1716 213.828 89.5 213 89.5V92.5ZM230.329 98.3416C231.07 98.7121 231.971 98.4118 232.342 97.6708C232.712 96.9299 232.412 96.0288 231.671 95.6584L230.329 98.3416ZM220.065 103.499C227.791 103.163 230.692 98.4705 231.342 97.1708L228.658 95.8292C228.308 96.5295 226.209 100.229 219.935 100.501L220.065 103.499ZM211.5 89.5H210V92.5H211.5V89.5ZM210.049 90.6214C209.5 92.7247 209.262 95.9713 210.57 98.7299C211.24 100.145 212.318 101.425 213.931 102.306C215.532 103.18 217.562 103.607 220.065 103.499L219.935 100.501C217.838 100.593 216.38 100.225 215.369 99.6724C214.37 99.1271 213.71 98.3505 213.28 97.4451C212.388 95.5621 212.5 93.1086 212.951 91.3786L210.049 90.6214ZM211.5 92.5H213V89.5H211.5V92.5ZM229.329 97.8416L230.329 98.3416L231.671 95.6584L230.671 95.1584L229.329 97.8416Z" fill="#202314"/>
<path d="M223.128 73.0643C218.128 72.5322 215.628 78.7529 215.628 80.7277C215.628 82.9465 214.11 82.8626 212.128 83.5693C210.146 84.276 211.19 85.5668 212.128 85.4851C223.128 84.5272 225.067 84.7398 234.5 93.6275C235.623 94.6855 236.31 93.8656 236 92.6695C235.69 91.4735 234.78 89.4518 235.623 87.4331C236.423 85.5173 238.128 76.4684 233.128 76.417C230 76.3849 228.16 78.592 227.08 80.8412C226.394 82.2687 226.197 81.6535 226.394 80.6955C226.789 78.7797 227.38 73.5169 223.128 73.0643Z" fill="#202314" stroke="#202314"/>
<path fill-rule="evenodd" clip-rule="evenodd" d="M219 81.2475C219 80.3282 219.329 79.364 219.866 78.5242C220.406 77.6797 221.106 77.0397 221.754 76.7215C222.401 76.4033 222.829 76.4668 223.101 76.668C223.429 76.9106 223.885 77.5967 224.002 79.2755C224.041 79.8265 224.519 80.2419 225.07 80.2033C225.621 80.1648 226.036 79.6869 225.998 79.136C225.865 77.2417 225.321 75.8222 224.29 75.0598C223.203 74.256 221.912 74.4152 220.871 74.9266C219.831 75.4378 218.875 76.3611 218.181 77.4467C217.484 78.537 217 79.8698 217 81.2475C217 81.7998 217.448 82.2475 218 82.2475C218.552 82.2475 219 81.7998 219 81.2475ZM229.441 82.8775C229.722 82.0968 230.222 81.3806 230.799 80.8517C231.39 80.3099 231.974 80.0428 232.391 80.0048C232.585 79.9871 232.724 80.0199 232.825 80.0732C232.924 80.125 233.049 80.228 233.17 80.4528C233.429 80.9375 233.623 81.9168 233.406 83.6664C233.338 84.2144 233.727 84.7139 234.275 84.782C234.823 84.85 235.323 84.4609 235.391 83.9128C235.627 82.0086 235.481 80.5331 234.933 79.5086C234.649 78.9788 234.253 78.5637 233.755 78.3021C233.259 78.0421 232.724 77.9662 232.209 78.013C231.209 78.1041 230.232 78.6584 229.448 79.3774C228.649 80.1094 227.958 81.0932 227.559 82.1987C227.372 82.7182 227.641 83.2913 228.161 83.4788C228.68 83.6662 229.253 83.397 229.441 82.8775Z" fill="white"/>
<path d="M246.5 63.9319L201 74.948L200 69.5L200.5 69.3806L208.372 67.5L207 58.1844C222.5 52.9158 235.5 51 235.5 51L238.538 60.2941L245.401 58.6123L246.5 63.9319Z" fill="#FFCB09"/>
<path d="M238.538 60.2941L245.401 58.6123L246.5 63.9319L201 74.948L200 69.5L200.5 69.3806M238.538 60.2941L235.5 51C235.5 51 222.5 52.9158 207 58.1844L208.372 67.5L200.5 69.3806M238.538 60.2941L200.5 69.3806" stroke="#292300" stroke-width="3" stroke-linejoin="round"/>
<path d="M208.5 67.5L208 63.1637L227.5 58.1844L237 55.7896L238.538 60.2941L226.828 63.1637L208.5 67.5Z" fill="white"/>
<path d="M226.828 63.1637L238.538 60.2941L237 55.7896L227.5 58.1844M226.828 63.1637L222.173 61.6465L227.5 58.1844M226.828 63.1637L208.5 67.5L208 63.1637L227.5 58.1844" stroke="#292300" stroke-width="3" stroke-linejoin="round"/>
<path d="M230.909 244.429H230.194C230.003 243.867 229.693 243.264 229.267 242.62C228.846 241.977 228.456 241.631 228.098 241.581C227.9 241.557 227.655 241.535 227.365 241.516C227.074 241.498 226.824 241.489 226.613 241.489H226.177V251.814C226.177 252.037 226.217 252.235 226.298 252.408C226.378 252.575 226.536 252.708 226.771 252.807C226.913 252.863 227.133 252.921 227.43 252.983C227.733 253.039 227.989 253.079 228.2 253.104V253.827H220.861V253.104C221.041 253.085 221.291 253.06 221.613 253.03C221.941 252.992 222.163 252.949 222.281 252.9C222.522 252.801 222.683 252.668 222.763 252.501C222.844 252.334 222.884 252.136 222.884 251.907V241.489H222.448C222.238 241.489 221.987 241.498 221.696 241.516C221.406 241.535 221.161 241.557 220.963 241.581C220.605 241.631 220.212 241.977 219.785 242.62C219.365 243.264 219.058 243.867 218.867 244.429H218.152V240.663H230.909V244.429ZM247.965 253.827H240.83V253.104C241.041 253.085 241.297 253.054 241.6 253.011C241.91 252.968 242.12 252.921 242.231 252.872C242.46 252.779 242.624 252.652 242.723 252.491C242.822 252.331 242.871 252.127 242.871 251.879V242.045L238.344 253.614H237.175C237.119 253.41 236.98 253.005 236.758 252.399C236.541 251.793 236.365 251.307 236.229 250.942L232.898 241.897V249.903C232.898 250.67 232.948 251.254 233.047 251.656C233.152 252.052 233.319 252.343 233.548 252.529C233.702 252.658 233.977 252.782 234.373 252.9C234.775 253.017 235.057 253.085 235.217 253.104V253.827H229.558V253.104C229.713 253.085 229.963 253.045 230.31 252.983C230.662 252.915 230.95 252.801 231.173 252.64C231.42 252.467 231.587 252.176 231.674 251.768C231.76 251.353 231.803 250.766 231.803 250.005V243.483C231.803 243.087 231.754 242.76 231.655 242.5C231.556 242.234 231.408 242.024 231.21 241.869C230.962 241.677 230.709 241.553 230.449 241.498C230.189 241.442 229.926 241.405 229.66 241.386V240.663H235.718L238.966 249.356L241.702 242.296C241.795 242.036 241.885 241.727 241.971 241.368C242.058 241.009 242.104 240.774 242.111 240.663H247.946V241.386C247.748 241.399 247.541 241.424 247.324 241.461C247.108 241.498 246.901 241.547 246.703 241.609C246.462 241.69 246.301 241.816 246.22 241.99C246.146 242.163 246.109 242.354 246.109 242.565V251.888C246.109 252.111 246.146 252.3 246.22 252.454C246.301 252.603 246.462 252.733 246.703 252.844C246.827 252.9 247.028 252.952 247.306 253.002C247.59 253.051 247.81 253.085 247.965 253.104V253.827Z" fill="#202314"/>
<path d="M230.909 244.957H230.194C230.003 244.395 229.693 243.792 229.267 243.148C228.846 242.505 228.456 242.159 228.098 242.109C227.9 242.084 227.655 242.063 227.365 242.044C227.074 242.026 226.824 242.016 226.613 242.016H226.177V252.342C226.177 252.565 226.217 252.763 226.298 252.936C226.378 253.103 226.536 253.236 226.771 253.335C226.913 253.39 227.133 253.449 227.43 253.511C227.733 253.567 227.989 253.607 228.2 253.632V254.355H220.861V253.632C221.041 253.613 221.291 253.588 221.613 253.557C221.941 253.52 222.163 253.477 222.281 253.428C222.522 253.329 222.683 253.196 222.763 253.029C222.844 252.862 222.884 252.664 222.884 252.435V242.016H222.448C222.238 242.016 221.987 242.026 221.696 242.044C221.406 242.063 221.161 242.084 220.963 242.109C220.605 242.159 220.212 242.505 219.785 243.148C219.365 243.792 219.058 244.395 218.867 244.957H218.152V241.191H230.909V244.957ZM247.965 254.355H240.83V253.632C241.041 253.613 241.297 253.582 241.6 253.539C241.91 253.496 242.12 253.449 242.231 253.4C242.46 253.307 242.624 253.18 242.723 253.019C242.822 252.859 242.871 252.654 242.871 252.407V242.573L238.344 254.142H237.175C237.119 253.938 236.98 253.533 236.758 252.927C236.541 252.32 236.365 251.835 236.229 251.47L232.898 242.425V250.431C232.898 251.198 232.948 251.782 233.047 252.184C233.152 252.58 233.319 252.871 233.548 253.056C233.702 253.186 233.977 253.31 234.373 253.428C234.775 253.545 235.057 253.613 235.217 253.632V254.355H229.558V253.632C229.713 253.613 229.963 253.573 230.31 253.511C230.662 253.443 230.95 253.329 231.173 253.168C231.42 252.995 231.587 252.704 231.674 252.296C231.76 251.881 231.803 251.294 231.803 250.533V244.011C231.803 243.615 231.754 243.287 231.655 243.028C231.556 242.762 231.408 242.551 231.21 242.397C230.962 242.205 230.709 242.081 230.449 242.026C230.189 241.97 229.926 241.933 229.66 241.914V241.191H235.718L238.966 249.884L241.702 242.824C241.795 242.564 241.885 242.255 241.971 241.896C242.058 241.537 242.104 241.302 242.111 241.191H247.946V241.914C247.748 241.927 247.541 241.952 247.324 241.989C247.108 242.026 246.901 242.075 246.703 242.137C246.462 242.217 246.301 242.344 246.22 242.517C246.146 242.691 246.109 242.882 246.109 243.093V252.416C246.109 252.639 246.146 252.828 246.22 252.982C246.301 253.131 246.462 253.261 246.703 253.372C246.827 253.428 247.028 253.48 247.306 253.53C247.59 253.579 247.81 253.613 247.965 253.632V254.355Z" fill="#202314"/>
<path fill-rule="evenodd" clip-rule="evenodd" d="M68.1168 90.1218C65.8111 111.366 63.6122 121.923 47 121.797V132.883H61.7817L59.1421 181.452C58.6142 197.817 62.2041 213.76 78.6751 214.183C95.1462 214.605 96.8003 195.354 95.5685 185.675H88.7056C88.8816 191.306 87.7553 202.569 81.8426 202.569C74.4518 202.569 73.3959 190.954 74.4518 181.452C75.2964 173.85 75.8596 145.905 76.0355 132.883H88.7056V121.797C84.3063 123.029 76.5634 122.853 76.5634 112.822C76.5634 103.848 76.5634 100.152 77.6193 90.1218H68.1168ZM146.249 95.9289V102.509C149.293 99.0129 152.917 96.9848 156.807 96.9848C167.595 96.9848 176.34 112.584 176.34 131.827C176.34 151.071 167.595 166.67 156.807 166.67C153.53 166.67 150.441 165.23 147.729 162.686C148.091 177.95 148.36 190.136 148.36 192.538C148.36 198.028 153.992 199.401 156.807 199.401V205.208L124.076 205.736V200.457C129.989 200.457 132.523 193.594 132.523 188.843C132.629 174.291 132.992 150.841 133.263 133.328L133.263 133.325L133.263 133.31C133.441 121.818 133.579 112.886 133.579 110.711C133.579 105.22 127.948 103.144 125.132 102.792V95.9289H146.249ZM157.335 159.279C162 159.279 165.782 147.225 165.782 132.355C165.782 117.486 162 105.432 157.335 105.432C152.67 105.432 148.888 117.486 148.888 132.355C148.888 147.225 152.67 159.279 157.335 159.279ZM223.853 176.173C223.853 156.93 233.307 141.33 244.97 141.33C249.143 141.33 253.034 143.328 256.31 146.775C256.141 128.931 256.056 113.932 256.056 111.239C256.056 105.748 249.369 104.376 246.553 104.376V98.5685H271.365L269.782 193.066C269.782 198.556 276.997 201.689 279.812 202.041V208.376H257.112V204.683C253.677 208.672 249.489 211.015 244.97 211.015C233.307 211.015 223.853 195.416 223.853 176.173ZM237.579 175.117C237.579 159.956 242.306 147.665 248.137 147.665C253.968 147.665 258.695 159.956 258.695 175.117C258.695 190.278 253.968 202.569 248.137 202.569C242.306 202.569 237.579 190.278 237.579 175.117ZM345.274 116.518C340.274 116.518 337.814 121.48 337.015 124.625C336.262 124.501 335.495 124.437 334.716 124.437C324.803 124.437 316.766 134.836 316.766 147.665C316.766 157.084 321.099 165.194 327.325 168.839C317.508 172.804 319.592 177.699 322.82 180.187C316.021 183.716 311.487 190.056 311.487 197.289C311.487 208.369 322.123 217.35 335.244 217.35C348.364 217.35 359 208.369 359 197.289C359 186.21 348.364 177.228 335.244 177.228C334.65 177.228 334.061 177.247 333.478 177.283L333.66 177.228C328.654 177.729 328.87 173.958 338.357 170.415C346.524 168.237 352.665 158.879 352.665 147.665C352.665 138.053 348.153 129.804 341.721 126.272C343.021 123.827 345.759 120.611 347.386 125.492C349.075 130.56 353.193 127.604 353.193 125.492V121.797C353.017 120.037 350.764 116.518 345.274 116.518ZM334.188 163.503C338.561 163.503 342.107 156.412 342.107 147.665C342.107 138.918 338.561 131.827 334.188 131.827C329.814 131.827 326.269 138.918 326.269 147.665C326.269 156.412 329.814 163.503 334.188 163.503ZM335.772 211.015C342.769 211.015 348.442 205.106 348.442 197.817C348.442 190.528 342.769 184.619 335.772 184.619C328.774 184.619 323.102 190.528 323.102 197.817C323.102 205.106 328.774 211.015 335.772 211.015ZM313.599 167.726C313.599 186.969 304.854 202.569 294.066 202.569C283.278 202.569 274.533 186.969 274.533 167.726C274.533 148.483 283.278 132.883 294.066 132.883C304.854 132.883 313.599 148.483 313.599 167.726ZM303.041 168.254C303.041 183.123 299.259 195.178 294.594 195.178C289.929 195.178 286.147 183.123 286.147 168.254C286.147 153.384 289.929 141.33 294.594 141.33C299.259 141.33 303.041 153.384 303.041 168.254ZM110.35 181.452C121.138 181.452 129.883 165.852 129.883 146.609C129.883 127.366 121.138 111.767 110.35 111.767C99.5625 111.767 90.8173 127.366 90.8173 146.609C90.8173 165.852 99.5625 181.452 110.35 181.452ZM110.878 174.061C115.543 174.061 119.325 162.007 119.325 147.137C119.325 132.267 115.543 120.213 110.878 120.213C106.213 120.213 102.431 132.267 102.431 147.137C102.431 162.007 106.213 174.061 110.878 174.061Z" fill="#202314"/>
<defs>
<filter id="filter0_i_30_77" x="7" y="6" width="383" height="306" filterUnits="userSpaceOnUse" color-interpolation-filters="sRGB">
<feFlood flood-opacity="0" result="BackgroundImageFix"/>
<feBlend mode="normal" in="SourceGraphic" in2="BackgroundImageFix" result="shape"/>
<feColorMatrix in="SourceAlpha" type="matrix" values="0 0 0 0 0 0 0 0 0 0 0 0 0 0 0 0 0 0 127 0" result="hardAlpha"/>
<feOffset/>
<feGaussianBlur stdDeviation="15"/>
<feComposite in2="hardAlpha" operator="arithmetic" k2="-1" k3="1"/>
<feColorMatrix type="matrix" values="0 0 0 0 0 0 0 0 0 0 0 0 0 0 0 0 0 0 0.75 0"/>
<feBlend mode="normal" in2="shape" result="effect1_innerShadow_30_77"/>
</filter>
<filter id="filter1_i_30_77" x="160.225" y="64.8268" width="99.2746" height="184.357" filterUnits="userSpaceOnUse" color-interpolation-filters="sRGB">
<feFlood flood-opacity="0" result="BackgroundImageFix"/>
<feBlend mode="normal" in="SourceGraphic" in2="BackgroundImageFix" result="shape"/>
<feColorMatrix in="SourceAlpha" type="matrix" values="0 0 0 0 0 0 0 0 0 0 0 0 0 0 0 0 0 0 127 0" result="hardAlpha"/>
<feOffset/>
<feGaussianBlur stdDeviation="8.5"/>
<feComposite in2="hardAlpha" operator="arithmetic" k2="-1" k3="1"/>
<feColorMatrix type="matrix" values="0 0 0 0 0 0 0 0 0 0 0 0 0 0 0 0 0 0 0.25 0"/>
<feBlend mode="normal" in2="shape" result="effect1_innerShadow_30_77"/>
</filter>
<linearGradient id="paint0_linear_30_77" x1="315.35" y1="110.829" x2="176.388" y2="255.367" gradientUnits="userSpaceOnUse">
<stop offset="0.10322" stop-color="#666233" stop-opacity="0"/>
<stop offset="1" stop-color="#666233"/>
</linearGradient>
</defs>
</svg>
