<svg width="221" height="102" viewBox="0 0 221 102" fill="none" xmlns="http://www.w3.org/2000/svg">
<g filter="url(#filter0_d_111_77)">
<path d="M4 13H211.959C223.302 52.9976 211.959 94 211.959 94H4C4 94 17.2337 49.5 4 13Z" fill="#EBC748"/>
</g>
<path d="M58 -9.76728e-08L162.868 2.60067e-08L160.73 6.27698L163 12.6741L160.976 18.8878L162.868 25L58 25L60.3276 18.5236L58.1109 12.4731L60.0339 5.90697L58 -9.76728e-08Z" fill="#A85050"/>
<path d="M27.9 70.1V44.4L45 31.55L62.15 44.4V70.1H49.25V54.7001H40.75V70.1H27.9Z" fill="#404040"/>
<defs>
<filter id="filter0_d_111_77" x="0" y="13" width="221" height="89" filterUnits="userSpaceOnUse" color-interpolation-filters="sRGB">
<feFlood flood-opacity="0" result="BackgroundImageFix"/>
<feColorMatrix in="SourceAlpha" type="matrix" values="0 0 0 0 0 0 0 0 0 0 0 0 0 0 0 0 0 0 127 0" result="hardAlpha"/>
<feOffset dy="4"/>
<feGaussianBlur stdDeviation="2"/>
<feComposite in2="hardAlpha" operator="out"/>
<feColorMatrix type="matrix" values="0 0 0 0 0 0 0 0 0 0 0 0 0 0 0 0 0 0 0.25 0"/>
<feBlend mode="normal" in2="BackgroundImageFix" result="effect1_dropShadow_111_77"/>
<feBlend mode="normal" in="SourceGraphic" in2="effect1_dropShadow_111_77" result="shape"/>
</filter>
</defs>
</svg>
